:SAMPLES-PER-SECOND 30
:FULLY-SPECIFIED
:DEGREES
522
root  -39.9127 36.0979 -4.94159 29.1524 -83.4614 5.23766
RightUpLeg  -78.1789 -20.8969 24.7564
RightLeg  45.1023 -2.52007 -3.02932
RightFoot  -5.26527 0.597447 -11.8816
RightToes  0.00048216 0.542163 -0.142577
Spine  72.8122 -2.70378 6.23094
Spine1  2.6234 2.54805 -5.47735
HEad  -41.0897 -7.59499 8.33853
LeftShoulder1  4.44964 -27.0261 -6.80979
LeftArm  -83.7455 -60.4975 33.7554
LeftForeArm  9.68075 -7.38736 3.2966
LeftHand  -0.25398 0.0180481 5.50724
RightShoulder  2.43605 14.6932 5.6342
RightArm  -65.8537 54.4287 -21.1215
RightForeArm  -19.2247 1.82529 1.9196
RightHand  -1.08615 9.02864 -9.21514
LeftUpLeg  -76.6429 17.873 -20.9847
LeftLeg  43.3069 -2.17112 -1.78974
LeftFoot  -2.43348 -0.658052 8.62242
LeftToes  1.06244e-005 4.65855e-005 -8.18506e-006
523
root  -40.4299 35.9908 -5.11873 32.0809 -83.4516 4.51782
RightUpLeg  -80.3321 -20.0735 26.0516
RightLeg  46.1856 -2.40684 -3.01873
RightFoot  -6.0001 0.530042 -12.1704
RightToes  0.00048216 0.542163 -0.142577
Spine  74.0382 -2.47335 5.78733
Spine1  1.9245 2.45695 -5.63867
HEad  -41.8712 -6.86001 8.46204
LeftShoulder1  3.87815 -26.5252 -4.9671
LeftArm  -84.5897 -59.4804 34.1626
LeftForeArm  7.63344 -8.91114 3.42284
LeftHand  -0.25398 0.0180481 5.50724
RightShoulder  2.17905 14.3831 4.27868
RightArm  -67.3156 53.8155 -20.2351
RightForeArm  -21.642 3.76981 1.72983
RightHand  -1.08234 10.576 -8.35306
LeftUpLeg  -79.2405 17.7906 -21.4924
LeftLeg  44.7369 -1.98277 -1.69548
LeftFoot  -2.64891 -0.605795 8.16892
LeftToes  1.06244e-005 4.65855e-005 -8.18506e-006
524
root  -40.9068 35.9351 -5.26726 33.1604 -83.4897 5.4446
RightUpLeg  -82.2547 -19.3646 26.9147
RightLeg  47.3194 -2.38439 -3.11201
RightFoot  -6.33153 0.503571 -12.4172
RightToes  0.00048216 0.542163 -0.142577
Spine  74.8508 -2.41855 5.26679
Spine1  1.58284 2.1705 -5.93637
HEad  -42.4957 -5.99041 8.50134
LeftShoulder1  3.43003 -25.9689 -3.54956
LeftArm  -86.018 -58.456 33.9932
LeftForeArm  5.68538 -10.6105 3.5999
LeftHand  -0.25398 0.0180481 5.50724
RightShoulder  2.026 14.081 3.53154
RightArm  -69.147 53.6547 -19.6274
RightForeArm  -24.9349 6.66317 1.91419
RightHand  -1.15651 11.8034 -8.31101
LeftUpLeg  -81.7395 18.1373 -22.9425
LeftLeg  45.8662 -2.28722 -2.10863
LeftFoot  -2.32122 -0.626968 8.11144
LeftToes  1.06244e-005 4.65855e-005 -8.18506e-006
525
root  -41.345 35.9293 -5.39755 30.6252 -83.3602 9.5172
RightUpLeg  -83.7621 -19.2398 27.3576
RightLeg  48.2859 -2.41206 -3.24874
RightFoot  -6.83747 0.429243 -12.0248
RightToes  0.00048216 0.542163 -0.142577
Spine  75.4798 -2.66791 4.88604
Spine1  1.79128 1.80947 -6.25881
HEad  -43.0568 -5.35286 8.44801
LeftShoulder1  3.39413 -25.7301 -3.51918
LeftArm  -92.1513 -57.4441 34.2032
LeftForeArm  7.24003 -13.7493 3.23566
LeftHand  -0.25398 0.0180481 5.50724
RightShoulder  1.92318 13.4927 3.3018
RightArm  -72.4897 53.8541 -19.2965
RightForeArm  -27.7884 10.2657 2.09717
RightHand  -1.18938 12.5495 -8.21273
LeftUpLeg  -83.4005 18.593 -24.9003
LeftLeg  46.4333 -3.09854 -3.06452
LeftFoot  -2.12114 -0.64202 8.10626
LeftToes  1.06244e-005 4.65855e-005 -8.18506e-006
526
root  -41.7385 35.9537 -5.51361 27.5058 -83.1797 13.799
RightUpLeg  -84.8551 -19.3694 27.8245
RightLeg  48.8092 -2.37189 -3.25934
RightFoot  -7.29562 0.367983 -11.7595
RightToes  0.00048216 0.542163 -0.142577
Spine  75.8777 -2.83877 4.7841
Spine1  2.49879 1.63918 -6.25764
HEad  -43.6757 -5.09253 8.28619
LeftShoulder1  3.68814 -25.503 -4.76063
LeftArm  -104.259 -56.879 34.6105
LeftForeArm  14.6041 -18.4054 0.587754
LeftHand  -0.25398 0.0180481 5.50724
RightShoulder  1.86723 12.6899 3.54956
RightArm  -77.7821 53.98 -19.0467
RightForeArm  -27.5004 14.2647 2.45703
RightHand  -0.975609 12.4892 -6.85124
LeftUpLeg  -84.336 19.0073 -26.5629
LeftLeg  46.6055 -3.96896 -4.06695
LeftFoot  -2.24436 -0.618587 7.93234
LeftToes  1.06244e-005 4.65855e-005 -8.18506e-006
527
root  -42.0589 35.9875 -5.60939 26.6544 -83.1291 15.636
RightUpLeg  -85.6629 -19.3105 28.4552
RightLeg  49.0705 -2.28223 -3.17931
RightFoot  -7.41487 0.361463 -11.9432
RightToes  0.00048216 0.542163 -0.142577
Spine  75.8965 -2.76141 4.85152
Spine1  3.34385 1.70832 -5.96908
HEad  -43.9548 -5.15425 7.98106
LeftShoulder1  3.96109 -24.9677 -6.10502
LeftArm  -114.111 -56.9784 35.1384
LeftForeArm  20.3794 -21.9879 -2.90472
LeftHand  -0.25398 0.0180481 5.50724
RightShoulder  1.87879 12.0355 4.18317
RightArm  -83.8975 53.8591 -18.9338
RightForeArm  -23.9488 18.1645 3.65823
RightHand  -0.674354 11.9749 -5.04293
LeftUpLeg  -85.1965 19.3268 -27.5977
LeftLeg  46.7853 -4.50753 -4.7043
LeftFoot  -2.14856 -0.606697 7.69652
LeftToes  1.06244e-005 4.65855e-005 -8.18506e-006
528
root  -42.2875 36.0358 -5.67725 27.3825 -83.119 15.6837
RightUpLeg  -86.2507 -19.2353 29.1149
RightLeg  49.2239 -2.14617 -3.0276
RightFoot  -7.31954 0.37228 -11.9507
RightToes  0.00048216 0.542163 -0.142577
Spine  75.7045 -2.70524 4.9432
Spine1  3.98001 1.82 -5.685
HEad  -43.6156 -5.39025 7.51208
LeftShoulder1  3.99927 -24.2736 -6.65365
LeftArm  -117.188 -57.2488 36.0304
LeftForeArm  19.3897 -23.2113 -3.88971
LeftHand  -0.25398 0.0180481 5.50724
RightShoulder  1.93835 11.6746 4.95152
RightArm  -87.564 53.7433 -19.098
RightForeArm  -20.9255 21.5347 5.22462
RightHand  -0.508991 11.5381 -4.02631
LeftUpLeg  -86.0391 19.5271 -28.2028
LeftLeg  46.9911 -4.77005 -5.03829
LeftFoot  -1.59286 -0.630171 7.49176
LeftToes  1.06244e-005 4.65855e-005 -8.18506e-006
529
root  -42.4372 36.1095 -5.71618 27.4393 -83.0537 16.0733
RightUpLeg  -86.6139 -19.4313 29.6907
RightLeg  49.1608 -1.92609 -2.74844
RightFoot  -7.09877 0.388714 -11.7307
RightToes  0.00048216 0.542163 -0.142577
Spine  75.6085 -2.81169 5.00969
Spine1  4.28872 1.82132 -5.48677
HEad  -43.1803 -5.52106 6.97962
LeftShoulder1  3.9229 -23.7483 -6.65875
LeftArm  -118.219 -57.2436 36.5488
LeftForeArm  17.2971 -23.18 -3.9555
LeftHand  -0.25398 0.0180481 5.50724
RightShoulder  2.01312 11.4983 5.68349
RightArm  -87.608 53.7229 -19.388
RightForeArm  -20.3758 24.2384 6.17808
RightHand  -0.373209 11.0459 -3.16042
LeftUpLeg  -86.3751 19.6301 -28.6227
LeftLeg  46.8721 -4.96415 -5.23558
LeftFoot  -1.04859 -0.6518 7.29647
LeftToes  1.06244e-005 4.65855e-005 -8.18506e-006
